<svg width="50" height="50" viewBox="0 0 253 287" fill="none" xmlns="http://www.w3.org/2000/svg">
<path fill-rule="evenodd" clip-rule="evenodd" d="M41.0873 231.985C20.6862 225.455 0 207.484 0 176.508C0 137.587 14.6017 125.037 40.0437 103.172C53.0359 92.0057 68.855 78.4102 87.0001 57.6326V229.937C80.1071 232.34 72.4518 234.069 64.0908 234.626L64.0691 218H64V179H23.0271C23.5194 197.256 30.6709 206.918 41.0597 210.847L41.0873 231.985ZM26.421 156H64V113.19C62.4884 114.466 60.989 115.719 59.5074 116.957C45.0551 129.036 32.291 139.704 26.421 156Z" fill="black"/>
<path fill-rule="evenodd" clip-rule="evenodd" d="M95.0001 226.715C103.961 222.612 111.316 217.539 116.899 212.947C115.322 245.473 107.626 268.71 73.0865 287H185.914C151.374 268.71 143.678 245.473 142.101 212.947C147.89 217.705 155.585 222.987 165 227.168V201.981C147.49 193.192 132.618 181.044 129 172.85L129.003 42C137.122 52.2193 150.138 64.7808 165 79.0837V49.3843C153.925 35.974 142.058 19.8404 129.503 0C117.323 19.2468 105.791 35.0054 95.0001 48.1735V226.715ZM129 172.85C127.492 176.619 123.54 181.231 118 185.969V56H117.995C119.959 53.5163 121.824 51.1335 123.592 48.8737L123.593 48.8727C125.506 46.4284 127.306 44.1281 128.997 42L128.999 119.5L129 172.85Z" fill="black"/>
<path d="M173 230.282V58.7689C190.727 78.9075 206.204 92.2091 218.958 103.17C231.898 114.291 242.034 123.002 248.87 134H220.434C216.993 130.298 212.771 126.139 207.602 121.047L207.6 121.045C204.167 117.663 200.317 113.869 196 109.525V156H233.401C234.619 161.467 235 168.019 235 176.96C235 177.651 234.991 178.331 234.973 179H196V212.392C208.977 214.268 220.727 212.096 227.86 203H252.983C242.049 224.669 218.416 234.818 200.707 234.818C190.479 234.823 181.212 233.039 173 230.282Z" fill="black"/>
</svg>
